<svg version="1" xmlns="http://www.w3.org/2000/svg" width="682.667" height="682.667" viewBox="0 0 512.000000 512.000000"><path d="M30 26.3c-.3.3-4.1.7-8.5 1.1-4.4.3-9 .8-10.2 1-1.1.3-4.2.8-6.7 1.1l-4.6.7v216.4C0 419 .3 463 1.3 463.1c.6 0 2.1.3 3.2.5 12.8 2.9 49.3 4.2 63.5 2.3 3.6-.5 8.1-1.1 10-1.3 33.9-4.4 72.9-21.5 103.5-45.4 15-11.7 40.2-39.8 49.2-54.7 3.9-6.5 12.3-22 12.3-22.7 0-1.3 1.8-.9 2.3.4.2.7 0 2.1-.5 3-.6 1.3-.5 1.6.5 1.2 1-.4 1.4.2 1.2 2-.2 1.4-.7 3-1.1 3.7-.5.9-.2 1 1.2.5 1.5-.6 1.6-.5.7.5-1 1-.9 1.6.3 3 1.5 1.6 1.4 1.7-.8 1.3-1.2-.2-1.7-.2-1 .2.7.3 1.7 1.5 2.4 2.7 1.1 2.1 1 2.1-.8.7-1.8-1.5-1.8-1.4 0 1.4s1.8 2.9 0 2.2c-1.4-.4-1.2-.1.6 1.5 1.4 1.1 2 1.8 1.4 1.5-.7-.3-1.5.1-1.8 1-.3.8-.2 1.2.4.9.6-.3 1-.3 1.1.2.6 5.7.4 6.2-1.1 5-.8-.6-.5 0 .7 1.3 1.6 1.9 1.9 2.9 1.2 4.2-.7 1.3-.7 1.8.2 1.8.8 0 .8.4-.1 1.5-.7.9-.8 1.5-.2 1.5.5 0 1.3.7 1.6 1.6.4 1 .2 1.3-.6.8s-.9-.2-.5 1c.4 1 .7 2 .7 2.2 0 .3.6.2 1.3-.2.7-.5.6 0-.3 1.1-1.2 1.4-1.2 1.9-.2 2.3 1 .3.8.8-.5 1.9-1 .8-1.3 1.2-.6.9 1.5-.8 2.7 1 1.3 1.9-.5.3-1 1.1-1 1.6 0 .6.4.8 1 .4.5-.3.8.9.6 3-.3 2.3 0 3.3.7 2.8.6-.4.8 0 .4 1-.3.8.1 2.1.9 2.8 1.2 1 1.3.9.8-.7-.7-1.8-.7-1.8 1.3-.1 1.5 1.3 2.3 1.5 2.8.7.6-.9 1-.9 1.6.1.7 1.2.9 1.1 1-.1 0-1 .3-.8.9.5.8 1.9.9 1.9.9-.3.1-1.4.7-2.2 1.9-2.2 1.4 0 1.5-.2.2-1-1.2-.8-1.2-1 .4-1.6 1.4-.5 1.5-.9.4-1.5-1-.7-.9-.9.5-.9.9 0 1.7-.5 1.7-1 0-.6-.5-1-1-1-.7 0-.7-.7 0-2 .6-1.1 1.5-1.8 2-1.5.4.3.6-.4.3-1.5s0-2 .6-2 1.1-.5 1.1-1.1c0-.5-.6-.7-1.2-.4-.7.4-.5 0 .4-.8 1-.8 1.6-2.3 1.3-3.6-.2-1.2 0-1.9.6-1.6.5.4.9-.1.9-1 0-1 .5-1.3 1.3-.9.8.5.8.2-.2-.9-1-1.3-1-1.7-.1-1.7.8 0 1-.8.7-2.1-.5-1.7-.3-1.8.9-.8 1.3 1 1.3.8.4-1.5-.6-1.8-.6-2.5 0-2.1 1 .6 1.3-.3 1.3-3.7 0-1 .3-1.5.8-1.3.4.3 1 .1 1.4-.5.3-.5.1-1-.5-1s-.8-.5-.5-1c.4-.6 1.2-.7 1.8-.4.9.5.9.3 0-.6-1-1.1-.9-1.6.5-2.7.9-.8 1.1-1.2.5-.8-.9.4-1.1.1-.7-.9.3-.9 1.1-1.3 1.6-1 .6.4.5-.2-.1-1.4-.7-1.3-.7-2.3-.2-2.7 1.2-.7 4.1-6.4 4.1-8.1 0-.7.6-1.5 1.3-1.7.9-.4.9-.6 0-.6-.7-.1-1.3-.6-1.3-1.2s.7-.9 1.4-.6c1 .4 1.3.1 1-.8-.3-.8-.3-1.9.1-2.5.4-.6 1.9 1.5 3.4 4.7 2.6 5.3 13.7 24.1 15 25.3.3.3 1.9 2.4 3.5 4.8 7.6 11.1 24.1 28.6 37.1 39.1 14.8 12.1 26.3 19.5 42.4 27.6 9.4 4.7 14.7 6.9 28.1 12 7.9 2.9 27.9 7.5 44 10.1 4.8.7 40.6 1.3 45.3.7l3.7-.5V27.3l-3.7-.3c-8.2-.6-32.2-.4-39.8.3-47.5 4.4-96.4 26.5-130 58.6-15.8 15.1-26.7 28.5-37.5 46.2-3.9 6.4-4.9 7.4-6.5 6.8-1.1-.4-1.4-.8-.7-.8.6-.1 1.2-.6 1.2-1.2 0-.5-.6-.7-1.2-.3-.9.5-.9.2.1-.9 1-1.3 1-1.7.1-1.7-1 0-1-.3 0-1.5s1-1.5-.1-1.5-1.1-.2.1-1c1.2-.8 1.2-1 .1-1-.9 0-1.2-.9-.9-3 .3-2.2.1-3-1.1-3-1 0-1.2-.3-.5-.8.6-.4 1.3-1.5 1.7-2.4.4-1.3.2-1.5-1.1-1.1-1.5.6-1.6.5-.2-1.2.9-1.1 1-1.6.3-1.1-.8.4-1.3.1-1.3-.9s.5-1.3 1.3-.9c.9.6.9.5 0-.7-.7-.9-1.4-3.7-1.4-6.2-.1-2.6-.7-4.7-1.2-4.7s-.7-.9-.4-1.9c.3-1.4.1-1.8-.9-1.4-.8.3-1.1 1-.8 1.7.3.6-.2.2-1-.8-1.2-1.5-1.6-1.6-1.6-.5 0 1.2-.2 1.2-1-.1-.9-1.3-1-1.3-1 0s-.1 1.3-1 0c-1.1-1.7-4.1-.4-4.7 2.1-.3.8 0 .7.7-.4.6-.9 1.6-1.7 2.2-1.7.6 0-.1 1.1-1.5 2.4-1.4 1.3-2.3 2.7-2 3 .4.3 0 .6-.8.6-1.2 0-1.2.2.1 1 1.2.8 1.2 1-.3 1.6-.9.3-1.4 1.1-1 1.8 1 1.5 1.3 3.6.5 3.5-2.2-.3-3 .3-2.5 2 .2 1-.3 2.5-1.1 3.4-1.9 1.9-2.1 3.1-.3 2.1.8-.6.8-.3-.1.9-.8.9-1 2.2-.6 2.9.6 1 .5 1-.8 0-1.4-1.1-1.6-1-1.3.5.1 1-.5 2.7-1.3 3.8-1 1.2-1.1 1.5-.2.7.8-.6 1.8-1.2 2.4-1.2.5 0-.1.8-1.2 1.9-1.2 1-1.8 2.2-1.4 2.6.4.5-.2.5-1.3.2-2-.7-2-.7-.1.8 1.1.8 1.4 1.5.7 1.5s-1 .4-.7.9c.3.5-.1 1.1-.9 1.5-.8.3-1.5 1.1-1.5 1.8 0 .9.3.8 1-.2s1-1.1 1-.2c0 .7-.6 1.5-1.4 1.8-.9.3-1.2 1.2-.9 2.1.4 1 .2 1.4-.4 1-.6-.4-1 .1-1 1.1 0 3.5-.3 4.3-1.4 3.6-.8-.4-.8 0 0 1.5 1 1.7.9 2.1-.3 2.1-1 0-1.3.6-.9 1.7.5 1.2.3 1.4-.8.8-1.2-.8-1.2-.6 0 .8 1.1 1.4 1.1 1.8-.2 2.3-.9.3-1.3 1.2-1 2 .3.8 0 1.4-.7 1.4-.9 0-.9.4.1 1.7 1.3 1.5 1.2 1.5-1.1.3-2.5-1.3-2.5-1.3-.6.8 1.7 2 1.7 2.2.2 2.8-1 .4-1.5 1.3-1.2 2 .3.8-.1 1.4-.9 1.4-.7 0-1.9-1.7-2.5-3.8-2.4-7.5-15.1-32-21.6-41.7-10-14.8-16.5-22.7-29.3-35.5-18.2-18-37.1-31.4-59.6-42.1-21.3-10.1-44.6-17.2-63.6-19.5-3-.3-5.8-.8-6.2-1.1-1-.6-39.1-1.5-39.7-1z"/></svg>