<?xml version="1.0" encoding="UTF-8" standalone="no"?>
<!-- Created with Inkscape (http://www.inkscape.org/) -->

<svg
   xmlns:dc="http://purl.org/dc/elements/1.1/"
   xmlns:cc="http://creativecommons.org/ns#"
   xmlns:rdf="http://www.w3.org/1999/02/22-rdf-syntax-ns#"
   xmlns:svg="http://www.w3.org/2000/svg"
   xmlns="http://www.w3.org/2000/svg"
   xmlns:sodipodi="../../sodipodi.sourceforge.net/DTD/sodipodi-0.html"
   xmlns:inkscape="http://www.inkscape.org/namespaces/inkscape"
   width="141.49007mm"
   height="10.242269mm"
   viewBox="0 0 141.49006 10.242268"
   version="1.1"
   id="svg1041"
   inkscape:version="0.92.3 (2405546, 2018-03-11)"
   sodipodi:docname="contact-email.svg">
  <defs
     id="defs1035" />
  <sodipodi:namedview
     id="base"
     pagecolor="#2b1c7b"
     bordercolor="#666666"
     borderopacity="1.0"
     inkscape:pageopacity="1"
     inkscape:pageshadow="2"
     inkscape:zoom="0.98994949"
     inkscape:cx="1235.9661"
     inkscape:cy="-163.41203"
     inkscape:document-units="mm"
     inkscape:current-layer="layer1"
     showgrid="false"
     fit-margin-top="0"
     fit-margin-left="0"
     fit-margin-right="0"
     fit-margin-bottom="0"
     inkscape:window-width="3440"
     inkscape:window-height="1373"
     inkscape:window-x="-9"
     inkscape:window-y="-9"
     inkscape:window-maximized="1" />
  <metadata
     id="metadata1038">
    <rdf:RDF>
      <cc:Work
         rdf:about="">
        <dc:format>image/svg+xml</dc:format>
        <dc:type
           rdf:resource="http://purl.org/dc/dcmitype/StillImage" />
        <dc:title></dc:title>
      </cc:Work>
    </rdf:RDF>
  </metadata>
  <g
     inkscape:label="Layer 1"
     inkscape:groupmode="layer"
     id="layer1"
     transform="translate(473.19368,-66.231067)">
    <g
       style="font-style:normal;font-weight:normal;font-size:10.58333302px;line-height:1.25;font-family:sans-serif;text-align:end;letter-spacing:0px;word-spacing:0px;text-anchor:end;fill:#000000;fill-opacity:1;stroke:none;stroke-width:0.26458332"
       id="text830">
      <path
         d="m -468.97172,71.31086 q 0,-1.033529 -0.42891,-1.60197 -0.42375,-0.56844 -1.19373,-0.56844 -0.76481,0 -1.19372,0.56844 -0.42375,0.568441 -0.42375,1.60197 0,1.028361 0.42375,1.596801 0.42891,0.568441 1.19372,0.568441 0.76998,0 1.19373,-0.568441 0.42891,-0.56844 0.42891,-1.596801 z m 0.95085,2.242757 q 0,1.477946 -0.65629,2.196248 -0.65629,0.72347 -2.01021,0.72347 -0.50127,0 -0.94568,-0.07751 -0.44442,-0.07235 -0.863,-0.227377 V 75.24344 q 0.41858,0.227376 0.82682,0.335897 0.40825,0.10852 0.83199,0.10852 0.93535,0 1.40044,-0.490926 0.46508,-0.485758 0.46508,-1.472778 v -0.470255 q -0.29455,0.511596 -0.75447,0.764811 -0.45992,0.253214 -1.10071,0.253214 -1.06453,0 -1.71566,-0.81132 -0.65112,-0.81132 -0.65112,-2.149739 0,-1.343587 0.65112,-2.154907 0.65113,-0.81132 1.71566,-0.81132 0.64079,0 1.10071,0.253214 0.45992,0.253215 0.75447,0.764811 v -0.878499 h 0.95085 z"
         style="stroke-width:0.26458332"
         id="path832"
         inkscape:connector-curvature="0" />
      <path
         d="m -463.432,71.362536 q -1.15239,0 -1.5968,0.26355 -0.44442,0.26355 -0.44442,0.89917 0,0.506429 0.33073,0.806152 0.33589,0.294556 0.9095,0.294556 0.79065,0 1.26608,-0.558106 0.48059,-0.563273 0.48059,-1.493448 v -0.211874 z m 1.89652,-0.392741 v 3.302124 h -0.95084 V 73.39342 q -0.32557,0.5271 -0.81132,0.780314 -0.48576,0.248047 -1.18856,0.248047 -0.88884,0 -1.41594,-0.496094 -0.52193,-0.501261 -0.52193,-1.338419 0,-0.976685 0.65112,-1.472779 0.6563,-0.496093 1.95337,-0.496093 h 1.33326 v -0.09302 q 0,-0.656291 -0.43409,-1.012858 -0.42891,-0.361735 -1.20922,-0.361735 -0.4961,0 -0.96635,0.118856 -0.47026,0.118856 -0.90434,0.356567 v -0.878499 q 0.52193,-0.201538 1.01286,-0.299723 0.49092,-0.103353 0.95601,-0.103353 1.25574,0 1.87586,0.651123 0.62011,0.651123 0.62011,1.974039 z"
         style="stroke-width:0.26458332"
         id="path834"
         inkscape:connector-curvature="0" />
      <path
         d="m -455.06559,69.595202 q 0.35657,-0.640787 0.85266,-0.945678 0.4961,-0.304891 1.16789,-0.304891 0.90434,0 1.39526,0.63562 0.49093,0.630452 0.49093,1.79834 v 3.493326 h -0.95601 v -3.462321 q 0,-0.83199 -0.29456,-1.235066 -0.29456,-0.403076 -0.89917,-0.403076 -0.73897,0 -1.16789,0.490926 -0.42891,0.490926 -0.42891,1.338419 v 3.271118 h -0.95602 v -3.462321 q 0,-0.837158 -0.29455,-1.235066 -0.29456,-0.403076 -0.90951,-0.403076 -0.72863,0 -1.15755,0.496093 -0.42891,0.490926 -0.42891,1.333252 v 3.271118 h -0.95602 v -5.78776 h 0.95602 v 0.89917 q 0.32556,-0.532267 0.78031,-0.785482 0.45475,-0.253214 1.08004,-0.253214 0.63045,0 1.0697,0.320394 0.44442,0.320393 0.65629,0.930175 z"
         style="stroke-width:0.26458332"
         id="path836"
         inkscape:connector-curvature="0" />
      <path
         d="m -444.30656,71.140328 v 0.465087 h -4.37182 q 0.062,0.981853 0.58911,1.498617 0.53227,0.511597 1.47795,0.511597 0.54777,0 1.05936,-0.134359 0.51677,-0.134359 1.0232,-0.403076 v 0.89917 q -0.5116,0.217041 -1.04904,0.330729 -0.53743,0.113688 -1.09037,0.113688 -1.38493,0 -2.19625,-0.806152 -0.80615,-0.806153 -0.80615,-2.180746 0,-1.421102 0.76481,-2.253092 0.76998,-0.837158 2.07223,-0.837158 1.16788,0 1.84485,0.754476 0.68212,0.749308 0.68212,2.041219 z m -0.95084,-0.279053 q -0.0103,-0.780314 -0.43925,-1.245402 -0.42375,-0.465088 -1.12655,-0.465088 -0.79581,0 -1.27641,0.449585 -0.47542,0.449585 -0.54777,1.266072 z"
         style="stroke-width:0.26458332"
         id="path838"
         inkscape:connector-curvature="0" />
      <path
         d="m -438.23974,69.595202 q 0.35656,-0.640787 0.85266,-0.945678 0.49609,-0.304891 1.16789,-0.304891 0.90433,0 1.39526,0.63562 0.49093,0.630452 0.49093,1.79834 v 3.493326 h -0.95602 v -3.462321 q 0,-0.83199 -0.29455,-1.235066 -0.29456,-0.403076 -0.89917,-0.403076 -0.73898,0 -1.16789,0.490926 -0.42892,0.490926 -0.42892,1.338419 v 3.271118 h -0.95601 v -3.462321 q 0,-0.837158 -0.29456,-1.235066 -0.29455,-0.403076 -0.9095,-0.403076 -0.72864,0 -1.15755,0.496093 -0.42892,0.490926 -0.42892,1.333252 v 3.271118 h -0.95601 v -5.78776 h 0.95601 v 0.89917 q 0.32556,-0.532267 0.78032,-0.785482 0.45475,-0.253214 1.08003,-0.253214 0.63046,0 1.06971,0.320394 0.44441,0.320393 0.65629,0.930175 z"
         style="stroke-width:0.26458332"
         id="path840"
         inkscape:connector-curvature="0" />
      <path
         d="m -429.80098,71.362536 q -1.15239,0 -1.5968,0.26355 -0.44442,0.26355 -0.44442,0.89917 0,0.506429 0.33073,0.806152 0.3359,0.294556 0.9095,0.294556 0.79065,0 1.26608,-0.558106 0.48059,-0.563273 0.48059,-1.493448 v -0.211874 z m 1.89652,-0.392741 v 3.302124 h -0.95084 V 73.39342 q -0.32556,0.5271 -0.81132,0.780314 -0.48576,0.248047 -1.18856,0.248047 -0.88884,0 -1.41594,-0.496094 -0.52193,-0.501261 -0.52193,-1.338419 0,-0.976685 0.65113,-1.472779 0.65629,-0.496093 1.95336,-0.496093 h 1.33326 v -0.09302 q 0,-0.656291 -0.43409,-1.012858 -0.42891,-0.361735 -1.20922,-0.361735 -0.4961,0 -0.96635,0.118856 -0.47026,0.118856 -0.90434,0.356567 v -0.878499 q 0.52193,-0.201538 1.01286,-0.299723 0.49092,-0.103353 0.95601,-0.103353 1.25574,0 1.87586,0.651123 0.62011,0.651123 0.62011,1.974039 z"
         style="stroke-width:0.26458332"
         id="path842"
         inkscape:connector-curvature="0" />
      <path
         d="m -422.25106,68.654691 v 0.89917 q -0.40307,-0.206706 -0.83715,-0.310058 -0.43409,-0.103353 -0.89917,-0.103353 -0.70797,0 -1.06454,0.217041 -0.3514,0.217041 -0.3514,0.651123 0,0.330729 0.25322,0.521932 0.25321,0.186035 1.01802,0.356567 l 0.32556,0.07235 q 1.01286,0.217041 1.43661,0.61495 0.42891,0.39274 0.42891,1.100708 0,0.806152 -0.64079,1.276407 -0.63562,0.470256 -1.75183,0.470256 -0.46508,0 -0.97151,-0.09302 -0.50126,-0.08785 -1.05937,-0.268717 v -0.981852 q 0.5271,0.273885 1.0387,0.413411 0.51159,0.134359 1.01285,0.134359 0.6718,0 1.03353,-0.227376 0.36174,-0.232544 0.36174,-0.651123 0,-0.387574 -0.26355,-0.594279 -0.25838,-0.206706 -1.14205,-0.397909 l -0.33073,-0.07752 q -0.88367,-0.186035 -1.27641,-0.56844 -0.39274,-0.387574 -0.39274,-1.059367 0,-0.816488 0.57878,-1.260905 0.57877,-0.444417 1.64331,-0.444417 0.5271,0 0.99218,0.07751 0.46509,0.07752 0.85783,0.232544 z"
         style="stroke-width:0.26458332"
         id="path844"
         inkscape:connector-curvature="0" />
      <path
         d="m -419.4812,66.840849 v 1.64331 h 1.95854 v 0.738973 h -1.95854 v 3.141927 q 0,0.707967 0.1912,0.909505 0.19637,0.201538 0.79065,0.201538 h 0.97669 v 0.795817 h -0.97669 q -1.10071,0 -1.51928,-0.408244 -0.41858,-0.413411 -0.41858,-1.498616 v -3.141927 h -0.69764 v -0.738973 h 0.69764 v -1.64331 z"
         style="stroke-width:0.26458332"
         id="path846"
         inkscape:connector-curvature="0" />
      <path
         d="m -411.31632,71.140328 v 0.465087 h -4.37183 q 0.062,0.981853 0.58911,1.498617 0.53227,0.511597 1.47795,0.511597 0.54777,0 1.05936,-0.134359 0.51677,-0.134359 1.0232,-0.403076 v 0.89917 q -0.5116,0.217041 -1.04903,0.330729 -0.53744,0.113688 -1.09038,0.113688 -1.38492,0 -2.19624,-0.806152 -0.80616,-0.806153 -0.80616,-2.180746 0,-1.421102 0.76481,-2.253092 0.76998,-0.837158 2.07223,-0.837158 1.16789,0 1.84485,0.754476 0.68213,0.749308 0.68213,2.041219 z m -0.95085,-0.279053 q -0.0103,-0.780314 -0.43925,-1.245402 -0.42375,-0.465088 -1.12655,-0.465088 -0.79581,0 -1.2764,0.449585 -0.47543,0.449585 -0.54777,1.266072 z"
         style="stroke-width:0.26458332"
         id="path848"
         inkscape:connector-curvature="0" />
      <path
         d="m -406.40189,69.372994 q -0.1602,-0.09302 -0.3514,-0.134359 -0.18604,-0.04651 -0.41342,-0.04651 -0.80615,0 -1.24023,0.5271 -0.42891,0.521932 -0.42891,1.503784 v 3.048909 h -0.95602 v -5.78776 h 0.95602 v 0.89917 q 0.29972,-0.5271 0.78031,-0.780314 0.48059,-0.258382 1.16789,-0.258382 0.0982,0 0.21704,0.0155 0.11885,0.01033 0.26355,0.03617 z"
         style="stroke-width:0.26458332"
         id="path850"
         inkscape:connector-curvature="0" />
      <path
         d="m -402.45382,71.496895 q 0,0.738973 0.36691,1.16272 0.3669,0.418579 1.00769,0.418579 0.63562,0 0.99735,-0.423747 0.3669,-0.423747 0.3669,-1.157552 0,-0.72347 -0.37207,-1.147217 -0.37207,-0.428914 -1.00252,-0.428914 -0.62528,0 -0.99735,0.423747 -0.36691,0.423746 -0.36691,1.152384 z m 2.81637,1.545125 q -0.31006,0.397909 -0.71314,0.589112 -0.39791,0.186035 -0.93017,0.186035 -0.88884,0 -1.44694,-0.640788 -0.55294,-0.645955 -0.55294,-1.679484 0,-1.033529 0.5581,-1.679484 0.55811,-0.645955 1.44178,-0.645955 0.53226,0 0.93534,0.19637 0.40308,0.191203 0.70797,0.583944 v -0.676962 h 0.73897 v 3.803386 q 0.75448,-0.113688 1.17822,-0.687297 0.42892,-0.578776 0.42892,-1.493449 0,-0.552937 -0.16537,-1.038696 -0.16019,-0.485758 -0.49092,-0.89917 -0.53744,-0.676961 -1.31258,-1.033528 -0.76998,-0.361735 -1.67949,-0.361735 -0.63562,0 -1.21956,0.170532 -0.58395,0.165364 -1.08004,0.496093 -0.81132,0.5271 -1.27124,1.384929 -0.45475,0.852661 -0.45475,1.850016 0,0.821655 0.29455,1.539958 0.29973,0.718302 0.863,1.266072 0.5426,0.537435 1.25574,0.816488 0.71313,0.28422 1.52445,0.28422 0.66663,0 1.30742,-0.227376 0.64595,-0.222209 1.18339,-0.640788 l 0.46508,0.573609 q -0.64595,0.501261 -1.41076,0.764811 -0.75965,0.268717 -1.54513,0.268717 -0.95601,0 -1.80351,-0.341064 -0.84749,-0.335897 -1.50895,-0.981852 -0.66146,-0.645956 -1.00769,-1.493449 -0.34623,-0.852661 -0.34623,-1.829346 0,-0.940511 0.3514,-1.793172 0.3514,-0.852661 1.00252,-1.498617 0.66663,-0.65629 1.53996,-1.002522 0.87333,-0.3514 1.85002,-0.3514 1.09554,0 2.03088,0.449585 0.94051,0.449585 1.57613,1.276408 0.38757,0.506429 0.58911,1.100708 0.20671,0.594279 0.20671,1.229899 0,1.35909 -0.82166,2.144572 -0.82165,0.785481 -2.26859,0.816487 z"
         style="stroke-width:0.26458332"
         id="path852"
         inkscape:connector-curvature="0" />
      <path
         d="m -389.99979,70.778593 v 3.493326 h -0.95085 v -3.462321 q 0,-0.821655 -0.3204,-1.229899 -0.32039,-0.408243 -0.96118,-0.408243 -0.76998,0 -1.21439,0.490926 -0.44442,0.490926 -0.44442,1.338419 v 3.271118 h -0.95601 v -5.78776 h 0.95601 v 0.89917 q 0.34106,-0.521932 0.80098,-0.780314 0.46509,-0.258382 1.06971,-0.258382 0.99735,0 1.50895,0.620117 0.5116,0.614949 0.5116,1.813843 z"
         style="stroke-width:0.26458332"
         id="path854"
         inkscape:connector-curvature="0" />
      <path
         d="m -388.09294,68.484159 h 0.95085 v 5.78776 h -0.95085 z m 0,-2.253092 h 0.95085 v 1.20406 h -0.95085 z"
         style="stroke-width:0.26458332"
         id="path856"
         inkscape:connector-curvature="0" />
      <path
         d="m -384.2172,66.840849 v 1.64331 h 1.95854 v 0.738973 h -1.95854 v 3.141927 q 0,0.707967 0.1912,0.909505 0.19637,0.201538 0.79065,0.201538 h 0.97669 v 0.795817 h -0.97669 q -1.10071,0 -1.51928,-0.408244 -0.41858,-0.413411 -0.41858,-1.498616 v -3.141927 h -0.69764 v -0.738973 h 0.69764 v -1.64331 z"
         style="stroke-width:0.26458332"
         id="path858"
         inkscape:connector-curvature="0" />
      <path
         d="m -377.64913,69.372994 q -0.16019,-0.09302 -0.35139,-0.134359 -0.18604,-0.04651 -0.41342,-0.04651 -0.80615,0 -1.24023,0.5271 -0.42891,0.521932 -0.42891,1.503784 v 3.048909 h -0.95602 v -5.78776 h 0.95602 v 0.89917 q 0.29972,-0.5271 0.78031,-0.780314 0.48059,-0.258382 1.16789,-0.258382 0.0982,0 0.21704,0.0155 0.11885,0.01033 0.26355,0.03617 z"
         style="stroke-width:0.26458332"
         id="path860"
         inkscape:connector-curvature="0" />
      <path
         d="m -374.62606,69.150785 q -0.76481,0 -1.20923,0.599447 -0.44441,0.594279 -0.44441,1.632975 0,1.038696 0.43925,1.638143 0.44441,0.594279 1.21439,0.594279 0.75964,0 1.20406,-0.599447 0.44442,-0.599447 0.44442,-1.632975 0,-1.028361 -0.44442,-1.627808 -0.44442,-0.604614 -1.20406,-0.604614 z m 0,-0.806152 q 1.24024,0 1.9482,0.806152 0.70797,0.806152 0.70797,2.232422 0,1.421102 -0.70797,2.232422 -0.70796,0.806152 -1.9482,0.806152 -1.2454,0 -1.95337,-0.806152 -0.7028,-0.81132 -0.7028,-2.232422 0,-1.42627 0.7028,-2.232422 0.70797,-0.806152 1.95337,-0.806152 z"
         style="stroke-width:0.26458332"
         id="path862"
         inkscape:connector-curvature="0" />
      <path
         d="m -366.2338,68.706368 v 0.888834 q -0.40308,-0.222208 -0.81132,-0.330729 -0.40308,-0.113688 -0.81649,-0.113688 -0.92501,0 -1.4366,0.589111 -0.5116,0.583944 -0.5116,1.643311 0,1.059367 0.5116,1.648478 0.51159,0.583944 1.4366,0.583944 0.41341,0 0.81649,-0.108521 0.40824,-0.113688 0.81132,-0.335897 v 0.8785 q -0.39791,0.186035 -0.82682,0.279052 -0.42375,0.09302 -0.90434,0.09302 -1.30742,0 -2.07739,-0.821655 -0.76998,-0.821656 -0.76998,-2.216919 0,-1.415934 0.77514,-2.227254 0.78032,-0.81132 2.13424,-0.81132 0.43925,0 0.85783,0.09302 0.41858,0.08785 0.81132,0.268718 z"
         style="stroke-width:0.26458332"
         id="path864"
         inkscape:connector-curvature="0" />
      <path
         d="m -364.56982,66.231067 h 0.95085 v 8.040852 h -0.95085 z"
         style="stroke-width:0.26458332"
         id="path866"
         inkscape:connector-curvature="0" />
      <path
         d="m -359.00427,71.362536 q -1.15239,0 -1.5968,0.26355 -0.44442,0.26355 -0.44442,0.89917 0,0.506429 0.33073,0.806152 0.3359,0.294556 0.9095,0.294556 0.79065,0 1.26608,-0.558106 0.48059,-0.563273 0.48059,-1.493448 v -0.211874 z m 1.89652,-0.392741 v 3.302124 h -0.95084 V 73.39342 q -0.32556,0.5271 -0.81132,0.780314 -0.48576,0.248047 -1.18856,0.248047 -0.88883,0 -1.41593,-0.496094 -0.52194,-0.501261 -0.52194,-1.338419 0,-0.976685 0.65113,-1.472779 0.65629,-0.496093 1.95337,-0.496093 h 1.33325 v -0.09302 q 0,-0.656291 -0.43408,-1.012858 -0.42892,-0.361735 -1.20923,-0.361735 -0.4961,0 -0.96635,0.118856 -0.47026,0.118856 -0.90434,0.356567 v -0.878499 q 0.52193,-0.201538 1.01286,-0.299723 0.49092,-0.103353 0.95601,-0.103353 1.25574,0 1.87586,0.651123 0.62011,0.651123 0.62011,1.974039 z"
         style="stroke-width:0.26458332"
         id="path868"
         inkscape:connector-curvature="0" />
      <path
         d="m -351.45434,68.654691 v 0.89917 q -0.40308,-0.206706 -0.83716,-0.310058 -0.43408,-0.103353 -0.89917,-0.103353 -0.70797,0 -1.06453,0.217041 -0.3514,0.217041 -0.3514,0.651123 0,0.330729 0.25321,0.521932 0.25322,0.186035 1.01803,0.356567 l 0.32556,0.07235 q 1.01286,0.217041 1.4366,0.61495 0.42892,0.39274 0.42892,1.100708 0,0.806152 -0.64079,1.276407 -0.63562,0.470256 -1.75183,0.470256 -0.46509,0 -0.97152,-0.09302 -0.50126,-0.08785 -1.05937,-0.268717 v -0.981852 q 0.5271,0.273885 1.0387,0.413411 0.5116,0.134359 1.01286,0.134359 0.67179,0 1.03353,-0.227376 0.36173,-0.232544 0.36173,-0.651123 0,-0.387574 -0.26355,-0.594279 -0.25838,-0.206706 -1.14205,-0.397909 l -0.33073,-0.07752 q -0.88366,-0.186035 -1.2764,-0.56844 -0.39274,-0.387574 -0.39274,-1.059367 0,-0.816488 0.57877,-1.260905 0.57878,-0.444417 1.64331,-0.444417 0.5271,0 0.99219,0.07751 0.46509,0.07752 0.85783,0.232544 z"
         style="stroke-width:0.26458332"
         id="path870"
         inkscape:connector-curvature="0" />
      <path
         d="m -344.81392,70.778593 v 3.493326 h -0.95085 v -3.462321 q 0,-0.821655 -0.32039,-1.229899 -0.32039,-0.408243 -0.96118,-0.408243 -0.76998,0 -1.2144,0.490926 -0.44442,0.490926 -0.44442,1.338419 v 3.271118 h -0.95601 v -8.040852 h 0.95601 v 3.152262 q 0.34107,-0.521932 0.80099,-0.780314 0.46509,-0.258382 1.0697,-0.258382 0.99736,0 1.50895,0.620117 0.5116,0.614949 0.5116,1.813843 z"
         style="stroke-width:0.26458332"
         id="path872"
         inkscape:connector-curvature="0" />
      <path
         d="m -342.77271,72.959338 h 1.09037 v 1.312581 h -1.09037 z"
         style="stroke-width:0.26458332"
         id="path874"
         inkscape:connector-curvature="0" />
      <path
         d="m -339.53776,68.484159 h 0.95085 v 5.78776 h -0.95085 z m 0,-2.253092 h 0.95085 v 1.20406 h -0.95085 z"
         style="stroke-width:0.26458332"
         id="path876"
         inkscape:connector-curvature="0" />
      <path
         d="m -334.35978,69.150785 q -0.76481,0 -1.20923,0.599447 -0.44441,0.594279 -0.44441,1.632975 0,1.038696 0.43925,1.638143 0.44441,0.594279 1.21439,0.594279 0.75965,0 1.20406,-0.599447 0.44442,-0.599447 0.44442,-1.632975 0,-1.028361 -0.44442,-1.627808 -0.44441,-0.604614 -1.20406,-0.604614 z m 0,-0.806152 q 1.24024,0 1.9482,0.806152 0.70797,0.806152 0.70797,2.232422 0,1.421102 -0.70797,2.232422 -0.70796,0.806152 -1.9482,0.806152 -1.2454,0 -1.95337,-0.806152 -0.7028,-0.81132 -0.7028,-2.232422 0,-1.42627 0.7028,-2.232422 0.70797,-0.806152 1.95337,-0.806152 z"
         style="stroke-width:0.26458332"
         id="path878"
         inkscape:connector-curvature="0" />
    </g>
  </g>
</svg>
